HIERARCHY
ROOT root
{
  OFFSET 0 95.9893 0
  CHANNELS 6 Xposition Yposition Zposition Zrotation Xrotation Yrotation
  JOINT torso_1
  {
    OFFSET 0 5.22546 -1.18466
    CHANNELS 6 Xposition Yposition Zposition Zrotation Xrotation Yrotation
    JOINT torso_2
    {
      OFFSET 0 5.77894 1.10239
      CHANNELS 6 Xposition Yposition Zposition Zrotation Xrotation Yrotation
      JOINT torso_3
      {
        OFFSET -1.0557e-17 6.16289 0.118334
        CHANNELS 6 Xposition Yposition Zposition Zrotation Xrotation Yrotation
        JOINT torso_4
        {
          OFFSET -1.13649e-17 6.69386 -0.456341
          CHANNELS 6 Xposition Yposition Zposition Zrotation Xrotation Yrotation
          JOINT torso_5
          {
            OFFSET -2.02997e-17 7.82529 -1.54945
            CHANNELS 6 Xposition Yposition Zposition Zrotation Xrotation Yrotation
            JOINT torso_6
            {
              OFFSET -2.60628e-17 9.77186 -0.940923
              CHANNELS 6 Xposition Yposition Zposition Zrotation Xrotation Yrotation
              JOINT torso_7
              {
                OFFSET -2.98794e-17 10.8563 1.62248
                CHANNELS 6 Xposition Yposition Zposition Zrotation Xrotation Yrotation
                JOINT neck_1
                {
                  OFFSET -1.32927e-17 4.92478 0.736013
                  CHANNELS 6 Xposition Yposition Zposition Zrotation Xrotation Yrotation
                  JOINT neck_2
                  {
                    OFFSET -1.86396e-17 4.96043 0.433981
                    CHANNELS 6 Xposition Yposition Zposition Zrotation Xrotation Yrotation
                    JOINT head
                    {
                      OFFSET -2.06766e-17 4.97002 0.787173
                      CHANNELS 6 Xposition Yposition Zposition Zrotation Xrotation Yrotation
                      End Site
                      {
                        OFFSET 0 0.1 0
                      }
                    }
                  }
                }
                JOINT l_shoulder
                {
                  OFFSET 1.26863 -7.82717 7.75148
                  CHANNELS 6 Xposition Yposition Zposition Zrotation Xrotation Yrotation
                  JOINT l_up_arm
                  {
                    OFFSET 13.3291 3.34342 -3.36319
                    CHANNELS 6 Xposition Yposition Zposition Zrotation Xrotation Yrotation
                    JOINT l_low_arm
                    {
                      OFFSET 30.0522 0.0615366 0.141
                      CHANNELS 6 Xposition Yposition Zposition Zrotation Xrotation Yrotation
                      JOINT l_hand
                      {
                        OFFSET 24.9344 0.0510561 0.116988
                        CHANNELS 6 Xposition Yposition Zposition Zrotation Xrotation Yrotation
                        End Site
                        {
                          OFFSET 0.1 0 0
                        }
                      }
                    }
                  }
                }
                JOINT r_shoulder
                {
                  OFFSET -1.26863 -7.82715 7.75138
                  CHANNELS 6 Xposition Yposition Zposition Zrotation Xrotation Yrotation
                  JOINT r_up_arm
                  {
                    OFFSET -13.3291 3.34342 -3.36319
                    CHANNELS 6 Xposition Yposition Zposition Zrotation Xrotation Yrotation
                    JOINT r_low_arm
                    {
                      OFFSET -30.0522 0.0615366 0.141
                      CHANNELS 6 Xposition Yposition Zposition Zrotation Xrotation Yrotation
                      JOINT r_hand
                      {
                        OFFSET -24.9344 0.0510559 0.116988
                        CHANNELS 6 Xposition Yposition Zposition Zrotation Xrotation Yrotation
                        End Site
                        {
                          OFFSET -0.1 0 0
                        }
                      }
                    }
                  }
                }
              }
            }
          }
        }
      }
    }
  }
  JOINT l_up_leg
  {
    OFFSET 9.50369 -4.32711 2.09145
    CHANNELS 6 Xposition Yposition Zposition Zrotation Xrotation Yrotation
    JOINT l_low_leg
    {
      OFFSET -0.876987 -39.8926 -0.674123
      CHANNELS 6 Xposition Yposition Zposition Zrotation Xrotation Yrotation
      JOINT l_foot
      {
        OFFSET -2.39345 -41.5694 -6.22357
        CHANNELS 6 Xposition Yposition Zposition Zrotation Xrotation Yrotation
        JOINT l_toes
        {
          OFFSET 0.801613 -10.1701 12.8571
          CHANNELS 6 Xposition Yposition Zposition Zrotation Xrotation Yrotation
          End Site
          {
            OFFSET 0 0 0.1
          }
        }
      }
    }
  }
  JOINT r_up_leg
  {
    OFFSET -9.50369 -4.32711 2.09145
    CHANNELS 6 Xposition Yposition Zposition Zrotation Xrotation Yrotation
    JOINT r_low_leg
    {
      OFFSET 0.876987 -39.8926 -0.674123
      CHANNELS 6 Xposition Yposition Zposition Zrotation Xrotation Yrotation
      JOINT r_foot
      {
        OFFSET 2.39345 -41.5694 -6.22357
        CHANNELS 6 Xposition Yposition Zposition Zrotation Xrotation Yrotation
        JOINT r_toes
        {
          OFFSET -0.801613 -10.1701 12.8571
          CHANNELS 6 Xposition Yposition Zposition Zrotation Xrotation Yrotation
          End Site
          {
            OFFSET 0 0 0.1
          }
        }
      }
    }
  }
}
MOTION
Frames: 4
Frame Time: 0.020000
15.3851 88.5534 -103.836 -1.54972 -5.17743 -1.49139 0 5.22546 -1.18466 -1.49434 -0.0925036 -0.579319 0 5.77894 1.10239 -0.902949 1.07789 -0.899907 -1.0557e-17 6.16289 0.118334 -0.470704 2.49364 -0.813622 -1.13649e-17 6.69386 -0.456341 -0.0180303 4.60603 -0.81405 -2.02997e-17 7.82529 -1.54945 0.326046 5.35909 -0.838117 -2.60628e-17 9.77186 -0.940923 0.604615 5.91148 -1.16043 -2.98794e-17 10.8563 1.62248 -0.0623068 0.343984 -0.00473862 -1.32927e-17 4.92478 0.736013 1.86586 -17.1313 2.09348 -1.86396e-17 4.96043 0.433981 2.60628 -7.90129 0.924929 -2.06766e-17 4.97002 0.787173 3.88633 -2.46456 4.67092 1.26863 -7.82717 7.75148 -6.47586 4.03921 -2.96616 13.3291 3.34342 -3.36319 -65.9181 17.9235 -9.57615 30.0522 0.0615366 0.141 1.21517 -0.0560231 -5.86657 24.9344 0.0510561 0.116988 -176.589 -60.8663 -175.896 -1.26863 -7.82715 7.75138 8.28821 4.52237 2.61336 -13.3291 3.34342 -3.36319 66.0672 7.8558 9.29052 -30.0522 0.0615366 0.141 -1.39279 -0.0745196 6.72635 -24.9344 0.0510559 0.116988 162.666 -77.1878 162.907 9.50369 -4.32711 2.09145 4.09828 -17.7143 -11.9121 -0.876987 -39.8926 -0.674123 -16.3408 47.2918 6.30562 -2.39345 -41.5694 -6.22357 -0.0610892 -12.492 15.8222 0.801613 -10.1701 12.8571 2.48481e-17 -7.95139e-16 1.2424e-17 -9.50369 -4.32711 2.09145 10.9069 -6.96976 26.7311 0.876987 -39.8926 -0.674123 10.5359 34.9032 -2.68792 2.39345 -41.5694 -6.22357 -12.5163 -17.219 -16.5087 -0.801613 -10.1701 12.8571 -5.97198e-16 -5.59056e-16 -1.2747e-14 
14.9212 90.6876 -104.762 -1.79155 -3.77459 -2.18975 0 5.22546 -1.18466 -1.2832 -2.26708 -0.618454 0 5.77894 1.10239 -0.756168 -0.434407 -0.892037 -1.0557e-17 6.16289 0.118334 -0.363154 1.8169 -0.810157 -1.13649e-17 6.69386 -0.456341 0.0659196 5.21671 -0.810784 -2.02997e-17 7.82529 -1.54945 0.367381 6.84934 -0.839943 -2.60628e-17 9.77186 -0.940923 0.587847 7.74782 -1.14482 -2.98794e-17 10.8563 1.62248 -0.0518261 0.136674 -0.0509758 -1.32927e-17 4.92478 0.736013 1.81514 -13.7575 2.16764 -1.86396e-17 4.96043 0.433981 2.75502 -8.9368 0.99164 -2.06766e-17 4.97002 0.787173 3.32836 -5.06508 5.71528 1.26863 -7.82717 7.75148 -5.39574 1.82734 -1.23622 13.3291 3.34342 -3.36319 -66.3684 13.5984 -9.49754 30.0522 0.0615366 0.141 1.24681 -0.0591493 -6.01982 24.9344 0.0510561 0.116988 -176.236 -67.2275 -175.875 -1.26863 -7.82715 7.75138 6.1489 1.7175 0.633112 -13.3291 3.34342 -3.36319 65.4051 2.61757 8.74554 -30.0522 0.0615366 0.141 -1.70117 -0.113369 8.22422 -24.9344 0.0510559 0.116988 158.967 -81.3361 158.869 9.50369 -4.32711 2.09145 4.08918 -15.977 -11.4489 -0.876987 -39.8926 -0.674123 -13.061 40.892 4.13472 -2.39345 -41.5694 -6.22357 0.37876 -10.5239 15.819 0.801613 -10.1701 12.8571 2.48481e-17 -7.95139e-16 1.2424e-17 -9.50369 -4.32711 2.09145 10.5009 -6.07494 27.761 0.876987 -39.8926 -0.674123 8.36148 28.925 -1.64232 2.39345 -41.5694 -6.22357 -10.9624 -12.8682 -15.5317 -0.801613 -10.1701 12.8571 -1.99206e-16 -5.83904e-16 -1.27595e-14 
14.8741 93.1049 -106.094 -1.79835 -2.10398 -2.77194 0 5.22546 -1.18466 -1.14533 -3.27514 -0.651381 0 5.77894 1.10239 -0.668255 -1.26265 -0.892323 -1.0557e-17 6.16289 0.118334 -0.302821 1.26716 -0.810755 -1.13649e-17 6.69386 -0.456341 0.11148 5.1489 -0.812041 -2.02997e-17 7.82529 -1.54945 0.372891 7.08571 -0.84703 -2.60628e-17 9.77186 -0.940923 0.538399 8.07151 -1.13369 -2.98794e-17 10.8563 1.62248 -0.0446952 0.0637317 -0.0633842 -1.32927e-17 4.92478 0.736013 1.803 -10.9096 2.52178 -1.86396e-17 4.96043 0.433981 2.78429 -9.20999 1.16679 -2.06766e-17 4.97002 0.787173 2.83588 -6.30584 6.08428 1.26863 -7.82717 7.75148 -4.3263 0.677553 -0.0324153 13.3291 3.34342 -3.36319 -66.1639 9.64976 -8.36355 30.0522 0.0615366 0.141 1.41345 -0.0770355 -6.82759 24.9344 0.0510561 0.116988 -175.646 -71.0515 -176.026 -1.26863 -7.82715 7.75138 4.37697 0.248983 -0.415852 -13.3291 3.34342 -3.36319 63.7207 -2.27655 6.96587 -30.0522 0.0615366 0.141 -2.1706 -0.188344 10.5148 -24.9344 0.0510559 0.116988 148.585 -84.2151 147.972 9.50369 -4.32711 2.09145 3.73882 -13.9737 -10.674 -0.876987 -39.8926 -0.674123 -9.84402 33.0851 2.33317 -2.39345 -41.5694 -6.22357 0.447323 -6.80029 15.7084 0.801613 -10.1701 12.8571 2.48481e-17 -7.95139e-16 1.2424e-17 -9.50369 -4.32711 2.09145 9.42482 -6.4897 26.9628 0.876987 -39.8926 -0.674123 6.72234 23.9107 -1.00046 2.39345 -41.5694 -6.22357 -7.23946 -6.70132 -14.5512 -0.801613 -10.1701 12.8571 1.98363e-16 -5.96341e-16 -1.27719e-14 
15.2511 95.7349 -107.933 -1.77448 -0.331232 -2.98785 0 5.22546 -1.18466 -0.881241 -3.87599 -0.662353 0 5.77894 1.10239 -0.473279 -1.84152 -0.847958 -1.0557e-17 6.16289 0.118334 -0.162607 0.762242 -0.763159 -1.13649e-17 6.69386 -0.456341 0.202395 4.83136 -0.760229 -2.02997e-17 7.82529 -1.54945 0.401955 6.85022 -0.807558 -2.60628e-17 9.77186 -0.940923 0.496989 7.83423 -1.08027 -2.98794e-17 10.8563 1.62248 -0.0301002 0.0492069 -0.0451507 -1.32927e-17 4.92478 0.736013 1.63618 -8.20219 2.54363 -1.86396e-17 4.96043 0.433981 2.74148 -8.94758 1.1809 -2.06766e-17 4.97002 0.787173 2.09599 -6.85649 6.18893 1.26863 -7.82717 7.75148 -2.99117 -0.066836 0.957046 13.3291 3.34342 -3.36319 -65.5751 6.78297 -7.46139 30.0522 0.0615366 0.141 1.6434 -0.10563 -7.94431 24.9344 0.0510561 0.116988 -176.029 -73.1716 -177.133 -1.26863 -7.82715 7.75138 2.86911 -0.644387 -1.08529 -13.3291 3.34342 -3.36319 60.8729 -7.22312 4.74623 -30.0522 0.0615366 0.141 -2.69677 -0.295515 13.1012 -24.9344 0.0510559 0.116988 125.544 -86.387 124.403 9.50369 -4.32711 2.09145 3.49618 -12.2177 -9.60053 -0.876987 -39.8926 -0.674123 -6.98969 24.7574 1.09577 -2.39345 -41.5694 -6.22357 -1.12668 -0.656646 15.482 0.801613 -10.1701 12.8571 -3.72299e-16 -8.0755e-16 2.48349e-17 -9.50369 -4.32711 2.09145 8.07488 -7.03813 24.2419 0.876987 -39.8926 -0.674123 5.03495 18.3259 -0.489651 2.39345 -41.5694 -6.22357 -3.46061 1.45506 -13.6894 -0.801613 -10.1701 12.8571 -1.38981e-15 -5.343e-16 -1.27099e-14 
